<?xml version="1.0" encoding="utf-8"?>
<!-- Generator: Adobe Illustrator 16.0.0, SVG Export Plug-In . SVG Version: 6.00 Build 0)  -->
<!DOCTYPE svg PUBLIC "-//W3C//DTD SVG 1.1//EN" "http://www.w3.org/Graphics/SVG/1.1/DTD/svg11.dtd">
<svg version="1.1" id="Calque_1" xmlns="http://www.w3.org/2000/svg" xmlns:xlink="http://www.w3.org/1999/xlink" x="0px" y="0px"
	 width="450px" height="144.458px" viewBox="-150 -44.458 450 144.458" enable-background="new -150 -44.458 450 144.458"
	 xml:space="preserve">
<g>
	<g>
		<path fill="#009DD9" d="M-150-43.335h34.116v12.193h-10.154v82.527h10.154v12.119H-150V51.385h10.148v-82.527H-150V-43.335z"/>
		<path fill="#009DD9" d="M-50.699,51.385h10.288v-33.33c0-5.594-1.418-9.834-4.26-12.726c-2.837-2.886-6.914-4.326-12.227-4.326
			c-3.057,0-6.129,0.723-9.227,2.181c-3.105,1.458-6.042,3.273-8.814,5.436v42.771h10.292V63.51h-34.115V51.391h10.146V2.617
			h-10.146V-9.5h23.259v8.593h0.144c1.542-1.362,3.208-2.653,4.966-3.883c1.759-1.215,3.602-2.274,5.534-3.163
			c1.923-0.893,3.927-1.595,6.028-2.112c2.086-0.525,4.283-0.783,6.592-0.783c3.894,0,7.425,0.546,10.566,1.623
			c3.144,1.091,5.82,2.724,8.03,4.935c2.209,2.216,3.908,5.04,5.111,8.496c1.204,3.45,1.794,7.532,1.794,12.231v34.947h10.153
			v12.119h-34.113V51.385z"/>
		<path fill="#009DD9" d="M50.228,9.942c-1.97-3.525-4.472-6.105-7.51-7.743C39.689,0.55,36.175-0.27,32.181-0.27
			c-3.051,0-5.919,0.628-8.599,1.896c-2.679,1.278-5.016,3.075-7.008,5.433c-2.001,2.349-3.573,5.202-4.724,8.562
			c-1.156,3.366-1.73,7.104-1.73,11.238c0,4.084,0.576,7.775,1.73,11.068c1.153,3.295,2.741,6.096,4.765,8.425
			c2.016,2.321,4.354,4.108,7.002,5.35c2.662,1.254,5.517,1.867,8.565,1.867c4.518,0,8.43-1.094,11.769-3.274
			c3.34-2.183,5.991-5.392,7.963-9.621l10.85,5.354c-1.408,3.012-3.144,5.705-5.21,8.109c-2.064,2.391-4.406,4.436-7.012,6.123
			c-2.606,1.703-5.474,2.996-8.597,3.914c-3.132,0.914-6.432,1.377-9.901,1.377c-5.074,0-9.756-0.951-14.064-2.854
			c-4.304-1.906-8.011-4.563-11.133-7.998c-3.13-3.431-5.562-7.518-7.295-12.264c-1.746-4.746-2.61-9.938-2.61-15.581
			c0-5.631,0.914-10.821,2.754-15.564C1.522,6.547,4.042,2.466,7.231-0.944c3.189-3.407,6.927-6.066,11.206-7.995
			c4.277-1.926,8.858-2.886,13.743-2.886c4.607,0,8.958,0.797,13.077,2.391c4.104,1.602,7.709,4.024,10.818,7.26h7.392v12.12H50.231
			V9.942H50.228z"/>
		<path fill="#009DD9" d="M75.739-9.5h23.818v60.885h10.998v12.119H75.882V51.385h10.433V2.617H75.741V-9.5H75.739z"/>
		<path fill="#009DD9" d="M119.713-9.5h23.262v6.06c3.105-2.4,6.486-4.302,10.15-5.709c3.666-1.407,7.447-2.114,11.344-2.114
			c4.799,0,9.193,0.896,13.18,2.681c3.994,1.779,7.439,4.296,10.328,7.535c2.89,3.252,5.127,7.134,6.727,11.67
			c1.605,4.536,2.402,9.555,2.402,15.051c0,5.873-0.891,11.224-2.684,16.065c-1.786,4.843-4.26,8.981-7.429,12.436
			c-3.176,3.445-6.938,6.141-11.314,8.066c-4.371,1.93-9.161,2.895-14.379,2.895c-3.704,0-7.009-0.391-9.901-1.16
			c-2.897-0.777-5.654-1.779-8.283-2.996v23.605h11.412v12.123h-34.672V84.584h10.015V2.617h-10.156V-9.5H119.713z M161.022,0.295
			c-3.384,0-6.636,0.677-9.762,2.035c-3.129,1.365-5.836,3.252-8.145,5.641V47.51c1.559,1.6,3.771,3.031,6.658,4.303
			c2.897,1.275,6.5,1.9,10.813,1.9c3.018,0,5.902-0.578,8.678-1.766c2.771-1.17,5.209-2.92,7.324-5.243
			c2.115-2.321,3.814-5.207,5.08-8.637c1.268-3.434,1.9-7.395,1.9-11.915c0-4.134-0.598-7.792-1.799-10.988
			c-1.189-3.198-2.818-5.893-4.857-8.103c-2.047-2.211-4.43-3.891-7.154-5.034C167.037,0.871,164.118,0.295,161.022,0.295z"/>
		<path fill="#009DD9" d="M210.065-9.5h23.818v60.885h10.998v12.119h-34.682V51.385h10.438V2.617h-10.579V-9.5H210.065z
			 M218.174-35.37c0-1.223,0.238-2.385,0.736-3.486c0.498-1.103,1.156-2.067,1.973-2.892c0.828-0.822,1.801-1.482,2.932-1.974
			c1.125-0.494,2.326-0.737,3.592-0.737c1.221,0,2.393,0.243,3.486,0.737c1.102,0.492,2.068,1.154,2.895,1.974
			c0.814,0.822,1.477,1.788,1.973,2.892c0.494,1.101,0.738,2.263,0.738,3.486c0,1.269-0.244,2.467-0.738,3.594
			c-0.496,1.126-1.158,2.124-1.973,2.994c-0.826,0.87-1.791,1.55-2.895,2.044c-1.094,0.492-2.268,0.738-3.486,0.738
			c-1.266,0-2.467-0.246-3.592-0.738c-1.131-0.495-2.104-1.174-2.932-2.044c-0.818-0.87-1.475-1.866-1.973-2.994
			S218.174-34.101,218.174-35.37z"/>
		<path fill="#009DD9" d="M278.086-9.5h17.121V1.144H277.94l-0.209,42.146c0,2.856,0.32,5.186,0.975,6.973
			c0.662,1.782,1.719,3.019,3.18,3.704c1.455,0.672,3.107,1.01,4.936,1.01c1.974,0,3.709-0.178,5.215-0.531
			c1.506-0.348,3.154-0.945,4.934-1.797l3.031,8.82c-2.259,1.168-4.632,2.1-7.119,2.783c-2.484,0.682-5.426,1.018-8.813,1.018
			c-3.193,0-5.977-0.389-8.35-1.152c-2.373-0.795-4.368-2.084-5.984-3.918c-1.617-1.836-2.84-4.297-3.637-7.377
			c-0.789-3.072-1.189-6.907-1.189-11.513l0.209-40.168h-11.633V-9.503h11.777v-17.475l12.826-6.063V-9.5H278.086z"/>
	</g>
	<g>
		<path fill="#FFFFFF" d="M-98.762-35.37c0-1.223,0.242-2.385,0.74-3.486c0.498-1.103,1.153-2.067,1.973-2.892
			c0.813-0.822,1.794-1.482,2.919-1.974c1.134-0.494,2.331-0.737,3.602-0.737c1.219,0,2.373,0.243,3.476,0.737
			c1.104,0.492,2.067,1.154,2.899,1.974c0.822,0.822,1.478,1.788,1.973,2.892c0.486,1.101,0.741,2.263,0.741,3.486
			c0,1.269-0.255,2.467-0.741,3.594c-0.495,1.128-1.153,2.124-1.973,2.994c-0.829,0.87-1.793,1.55-2.899,2.044
			c-1.103,0.492-2.259,0.738-3.476,0.738c-1.273,0-2.468-0.246-3.602-0.738c-1.125-0.495-2.104-1.174-2.919-2.044
			c-0.822-0.87-1.475-1.866-1.973-2.994S-98.762-34.101-98.762-35.37z"/>
		<path fill="#DBF1FA" d="M-53.487-35.37c0-1.227,0.243-2.385,0.741-3.486c0.498-1.103,1.153-2.067,1.973-2.892
			c0.816-0.822,1.793-1.482,2.921-1.974c1.132-0.494,2.329-0.737,3.601-0.737c1.217,0,2.376,0.243,3.479,0.737
			c1.1,0.492,2.067,1.154,2.896,1.974c0.822,0.822,1.481,1.785,1.973,2.892c0.488,1.101,0.74,2.259,0.74,3.486
			c0,1.269-0.252,2.467-0.74,3.594c-0.492,1.128-1.153,2.124-1.973,2.994c-0.825,0.87-1.794,1.55-2.896,2.044
			c-1.102,0.494-2.26,0.74-3.478,0.74c-1.273,0-2.47-0.246-3.601-0.738c-1.128-0.495-2.098-1.174-2.921-2.044
			c-0.822-0.87-1.475-1.866-1.973-2.994S-53.487-34.101-53.487-35.37z"/>
		<path fill="#B6E3F4" d="M-8.209-35.37c0-1.223,0.243-2.385,0.737-3.486c0.498-1.103,1.157-2.067,1.975-2.892
			c0.817-0.825,1.797-1.482,2.925-1.974c1.131-0.494,2.328-0.737,3.595-0.737c1.222,0,2.379,0.243,3.48,0.737
			c1.103,0.492,2.07,1.154,2.897,1.974c0.82,0.822,1.479,1.788,1.975,2.892c0.489,1.101,0.741,2.263,0.741,3.486
			c0,1.269-0.249,2.469-0.741,3.594c-0.492,1.128-1.156,2.124-1.975,2.994c-0.825,0.87-1.793,1.55-2.897,2.044
			c-1.102,0.492-2.259,0.738-3.48,0.738c-1.269,0-2.465-0.246-3.595-0.738c-1.128-0.495-2.104-1.174-2.925-2.044
			s-1.477-1.866-1.975-2.994C-7.966-32.904-8.209-34.101-8.209-35.37z"/>
		<path fill="#92D5EF" d="M37.065-35.37c0-1.223,0.243-2.385,0.741-3.486c0.495-1.103,1.151-2.067,1.969-2.892
			c0.82-0.825,1.797-1.482,2.928-1.974c1.128-0.494,2.329-0.737,3.598-0.737c1.217,0,2.379,0.243,3.479,0.737
			c1.103,0.492,2.07,1.151,2.899,1.974c0.819,0.819,1.478,1.785,1.972,2.892c0.489,1.101,0.738,2.263,0.738,3.486
			c0,1.269-0.246,2.469-0.738,3.594c-0.491,1.128-1.154,2.127-1.972,2.994c-0.826,0.873-1.794,1.55-2.899,2.044
			c-1.1,0.492-2.263,0.738-3.479,0.738c-1.27,0-2.47-0.246-3.598-0.738c-1.131-0.495-2.105-1.174-2.928-2.044
			c-0.822-0.87-1.474-1.866-1.969-2.994S37.065-34.101,37.065-35.37z"/>
		<path fill="#6DC7E9" d="M82.342-35.37c0-1.223,0.24-2.385,0.738-3.486c0.498-1.103,1.157-2.067,1.975-2.892
			c0.823-0.822,1.797-1.479,2.928-1.974c1.125-0.491,2.328-0.737,3.593-0.737c1.219,0,2.385,0.243,3.486,0.737
			c1.1,0.492,2.065,1.154,2.895,1.974c0.817,0.822,1.477,1.788,1.975,2.892c0.485,1.101,0.737,2.263,0.737,3.486
			c0,1.269-0.245,2.469-0.737,3.594c-0.492,1.128-1.157,2.124-1.975,2.994c-0.826,0.87-1.793,1.55-2.895,2.044
			c-1.102,0.492-2.269,0.738-3.486,0.738c-1.266,0-2.468-0.246-3.593-0.738c-1.131-0.495-2.102-1.174-2.928-2.044
			c-0.817-0.87-1.477-1.866-1.975-2.994S82.342-34.101,82.342-35.37z"/>
		<path fill="#49B9E4" d="M127.62-35.37c0-1.223,0.24-2.385,0.737-3.486c0.498-1.103,1.156-2.067,1.972-2.892
			c0.823-0.822,1.799-1.482,2.93-1.974c1.128-0.494,2.326-0.737,3.593-0.737c1.217,0,2.386,0.246,3.483,0.737
			c1.102,0.495,2.074,1.151,2.897,1.974c0.819,0.822,1.474,1.788,1.972,2.892c0.492,1.101,0.738,2.263,0.738,3.486
			c0,1.269-0.246,2.467-0.738,3.594c-0.498,1.128-1.154,2.124-1.972,2.994c-0.823,0.873-1.794,1.55-2.897,2.044
			c-1.097,0.492-2.268,0.738-3.483,0.738c-1.269,0-2.467-0.246-3.593-0.738c-1.131-0.495-2.104-1.174-2.93-2.044
			c-0.817-0.87-1.474-1.866-1.972-2.994S127.62-34.101,127.62-35.37z"/>
		<path fill="#24ABDE" d="M172.899-35.37c0-1.223,0.24-2.385,0.738-3.486c0.495-1.103,1.154-2.07,1.971-2.892
			c0.824-0.825,1.795-1.479,2.932-1.974c1.125-0.491,2.325-0.737,3.594-0.737c1.219,0,2.385,0.243,3.486,0.737
			c1.094,0.492,2.068,1.151,2.892,1.974c0.817,0.822,1.477,1.788,1.975,2.892c0.491,1.101,0.737,2.263,0.737,3.486
			c0,1.269-0.244,2.469-0.737,3.594c-0.495,1.128-1.157,2.124-1.975,2.994c-0.823,0.873-1.796,1.55-2.892,2.044
			c-1.102,0.492-2.27,0.738-3.486,0.738c-1.269,0-2.469-0.246-3.594-0.738c-1.137-0.495-2.107-1.171-2.932-2.044
			c-0.818-0.87-1.476-1.866-1.971-2.994C173.139-32.904,172.899-34.101,172.899-35.37z"/>
		<path fill="#009DD9" d="M218.174-35.37c0-1.223,0.238-2.385,0.736-3.486c0.498-1.103,1.156-2.067,1.973-2.892
			c0.828-0.822,1.801-1.482,2.932-1.974c1.125-0.494,2.326-0.737,3.592-0.737c1.221,0,2.393,0.243,3.486,0.737
			c1.102,0.492,2.068,1.154,2.895,1.974c0.814,0.822,1.477,1.788,1.973,2.892c0.494,1.101,0.738,2.263,0.738,3.486
			c0,1.269-0.244,2.467-0.738,3.594c-0.496,1.126-1.158,2.124-1.973,2.994c-0.826,0.87-1.791,1.55-2.895,2.044
			c-1.094,0.492-2.268,0.738-3.486,0.738c-1.266,0-2.467-0.246-3.592-0.738c-1.131-0.495-2.104-1.174-2.932-2.044
			c-0.818-0.87-1.475-1.866-1.973-2.994S218.174-34.101,218.174-35.37z"/>
	</g>
</g>
</svg>
